<svg width="740" height="60"  viewBox="0 0 740 60" xmlns="http://www.w3.org/2000/svg">
<g transform="translate(20,10)">
<path d="M 0 20 A 10 10 0 0 0 0 40" stroke="black" stroke-width="1" fill="transparent" />
<line x1="0" y1="20" x2="700" y2="20" style="stroke:rgb(0,0,0);stroke-width:1" />
<line x1="0" y1="40" x2="700" y2="40" style="stroke:rgb(0,0,0);stroke-width:1" />
<text x="25" y="10" text-anchor="middle" fill="black">Prī</text>
<text x="50" y="10" text-anchor="middle" fill="black">-</text>
<path d="M 20 25 L 25 35 L 30 25 L 25 30 Z" stroke="black" stroke-width="1" fill="black" />
<text x="75" y="10" text-anchor="middle" fill="black">mu(s</text>
<line x1="100" y1="10" x2="100" y2="30" style="stroke:rgb(0,0,0);stroke-width:1" />
<circle cx="75" cy="30" r="2" stroke="black" stroke-width="1" fill="black" />
<text x="125" y="10" text-anchor="middle" fill="black">a)</text>
<text x="150" y="10" text-anchor="middle" fill="black">-</text>
<path d="M 120 25 L 125 35 L 130 25 L 125 30 Z" stroke="black" stroke-width="1" fill="black" />
<text x="175" y="10" text-anchor="middle" fill="black">mor</text>
<line x1="200" y1="10" x2="200" y2="30" style="stroke:rgb(0,0,0);stroke-width:1" />
<line x1="150" y1="20" x2="150" y2="40" style="stroke:rgb(0,0,0);stroke-width:1" />
<circle cx="175" cy="30" r="2" stroke="black" stroke-width="1" fill="black" />
<text x="225" y="10" text-anchor="middle" fill="black">Phoe</text>
<text x="250" y="10" text-anchor="middle" fill="black">-</text>
<path d="M 220.00000000000003 25 L 225 35 L 229.99999999999997 25 L 225 30 Z" stroke="black" stroke-width="1" fill="black" />
<text x="275" y="10" text-anchor="middle" fill="black">bī</text>
<line x1="300" y1="10" x2="300" y2="30" style="stroke:rgb(0,0,0);stroke-width:1" />
<line x1="250" y1="20" x2="250" y2="40" style="stroke:rgb(0,0,0);stroke-width:1" />
<circle cx="275" cy="30" r="2" stroke="black" stroke-width="1" fill="black" />
<text x="325" y="10" text-anchor="middle" fill="black">Daph</text>
<text x="350" y="10" text-anchor="middle" fill="black">-</text>
<path d="M 320 25 L 325 35 L 330 25 L 325 30 Z" stroke="black" stroke-width="1" fill="black" />
<text x="375" y="10" text-anchor="middle" fill="black">nē</text>
<line x1="400" y1="10" x2="400" y2="30" style="stroke:rgb(0,0,0);stroke-width:1" />
<line x1="350" y1="20" x2="350" y2="40" style="stroke:rgb(0,0,0);stroke-width:1" />
<circle cx="375" cy="30" r="2" stroke="black" stroke-width="1" fill="black" />
<text x="425" y="10" text-anchor="middle" fill="black">Pē</text>
<text x="450" y="10" text-anchor="middle" fill="black">-</text>
<circle cx="425" cy="30" r="2" stroke="black" stroke-width="1" fill="black" />
<text x="475" y="10" text-anchor="middle" fill="black">nē</text>
<text x="500" y="10" text-anchor="middle" fill="black">-</text>
<line x1="450" y1="20" x2="450" y2="40" style="stroke:rgb(0,0,0);stroke-width:1" />
<path d="M 470 25 L 475 35 L 480 25 L 475 30 Z" stroke="black" stroke-width="1" fill="black" />
<text x="525" y="10" text-anchor="middle" fill="black">i</text>
<text x="550" y="10" text-anchor="middle" fill="black">-</text>
<circle cx="525" cy="30" r="2" stroke="black" stroke-width="1" fill="black" />
<text x="575" y="10" text-anchor="middle" fill="black">a,</text>
<line x1="598" y1="10" x2="598" y2="30" style="stroke:rgb(0,0,0);stroke-width:1" />
<line x1="602" y1="10" x2="602" y2="30" style="stroke:rgb(0,0,0);stroke-width:1" />
<circle cx="575" cy="30" r="2" stroke="black" stroke-width="1" fill="black" />
<text x="625" y="10" text-anchor="middle" fill="black">quem</text>
<line x1="650" y1="10" x2="650" y2="30" style="stroke:rgb(0,0,0);stroke-width:1" />
<line x1="600" y1="20" x2="600" y2="40" style="stroke:rgb(0,0,0);stroke-width:1" />
<path d="M 620 25 L 625 35 L 630 25 L 625 30 Z" stroke="black" stroke-width="1" fill="black" />
<text x="675" y="10" text-anchor="middle" fill="black">nōn</text>
<path d="M 670 25 L 675 35 L 680 25 L 675 30 Z" stroke="black" stroke-width="1" fill="black" />
<path d="M 700 20 A 10 10 0 0 1 700 40" stroke="black" stroke-width="1" fill="transparent" />
</g></svg>