<svg width="940" height="60"  viewBox="0 0 940 60" xmlns="http://www.w3.org/2000/svg">
<g transform="translate(20,10)">
<line x1="0" y1="20" x2="900" y2="20" style="stroke:rgb(0,0,0);stroke-width:1" />
<line x1="0" y1="40" x2="900" y2="40" style="stroke:rgb(0,0,0);stroke-width:1" />
<text x="25" y="10" text-anchor="middle" fill="black">cūnc</text>
<text x="50" y="10" text-anchor="middle" fill="black">-</text>
<path d="M 18.75 25 L 25 35 L 31.25 25 L 25 30 Z" stroke="black" stroke-width="1" fill="black" />
<text x="75" y="10" text-anchor="middle" fill="black">ta</text>
<line x1="100" y1="10" x2="100" y2="30" style="stroke:rgb(0,0,0);stroke-width:1" />
<circle cx="75" cy="30" r="2" stroke="black" stroke-width="1" fill="black" />
<text x="125" y="10" text-anchor="middle" fill="black">de</text>
<text x="150" y="10" text-anchor="middle" fill="black">-</text>
<path d="M 118.75 25 L 125 35 L 131.25 25 L 125 30 Z" stroke="black" stroke-width="1" fill="black" />
<text x="187.5" y="10" text-anchor="middle" fill="black">ō,</text>
<line x1="223" y1="10" x2="223" y2="30" style="stroke:rgb(0,0,0);stroke-width:1" />
<line x1="227" y1="10" x2="227" y2="30" style="stroke:rgb(0,0,0);stroke-width:1" />
<line x1="150" y1="20" x2="150" y2="40" style="stroke:rgb(0,0,0);stroke-width:1" />
<circle cx="187.5" cy="30" r="2" stroke="black" stroke-width="1" fill="black" />
<text x="262.5" y="10" text-anchor="middle" fill="black">tan</text>
<text x="300" y="10" text-anchor="middle" fill="black">-</text>
<path d="M 256.25 25 L 262.5 35 L 268.75 25 L 262.5 30 Z" stroke="black" stroke-width="1" fill="black" />
<text x="325" y="10" text-anchor="middle" fill="black">tō</text>
<line x1="350" y1="10" x2="350" y2="30" style="stroke:rgb(0,0,0);stroke-width:1" />
<line x1="300" y1="20" x2="300" y2="40" style="stroke:rgb(0,0,0);stroke-width:1" />
<circle cx="325" cy="30" r="2" stroke="black" stroke-width="1" fill="black" />
<text x="375" y="10" text-anchor="middle" fill="black">mi</text>
<text x="400" y="10" text-anchor="middle" fill="black">-</text>
<path d="M 368.75 25 L 375 35 L 381.25 25 L 375 30 Z" stroke="black" stroke-width="1" fill="black" />
<text x="425" y="10" text-anchor="middle" fill="black">no(r</text>
<line x1="450" y1="10" x2="450" y2="20" style="stroke:rgb(0,0,0);stroke-width:1" />
<circle cx="425" cy="30" r="2" stroke="black" stroke-width="1" fill="black" />
<text x="475" y="10" text-anchor="middle" fill="black">est)</text>
<line x1="500" y1="10" x2="500" y2="30" style="stroke:rgb(0,0,0);stroke-width:1" />
<line x1="450" y1="20" x2="450" y2="40" style="stroke:rgb(0,0,0);stroke-width:1" />
<path d="M 468.75 25 L 475 35 L 481.25 25 L 475 30 Z" stroke="black" stroke-width="1" fill="black" />
<text x="525" y="10" text-anchor="middle" fill="black">tu</text>
<text x="550" y="10" text-anchor="middle" fill="black">-</text>
<path d="M 518.75 25 L 525 35 L 531.25 25 L 525 30 Z" stroke="black" stroke-width="1" fill="black" />
<text x="575" y="10" text-anchor="middle" fill="black">a</text>
<line x1="600" y1="10" x2="600" y2="20" style="stroke:rgb(0,0,0);stroke-width:1" />
<circle cx="575" cy="30" r="2" stroke="black" stroke-width="1" fill="black" />
<text x="625" y="10" text-anchor="middle" fill="black">glō</text>
<text x="650" y="10" text-anchor="middle" fill="black">-</text>
<line x1="600" y1="20" x2="600" y2="40" style="stroke:rgb(0,0,0);stroke-width:1" />
<path d="M 618.75 25 L 625 35 L 631.25 25 L 625 30 Z" stroke="black" stroke-width="1" fill="black" />
<text x="675" y="10" text-anchor="middle" fill="black">ri</text>
<text x="700" y="10" text-anchor="middle" fill="black">-</text>
<circle cx="675" cy="30" r="2" stroke="black" stroke-width="1" fill="black" />
<text x="725" y="10" text-anchor="middle" fill="black">a</text>
<line x1="750" y1="10" x2="750" y2="20" style="stroke:rgb(0,0,0);stroke-width:1" />
<circle cx="725" cy="30" r="2" stroke="black" stroke-width="1" fill="black" />
<text x="787.5" y="10" text-anchor="middle" fill="black">nos</text>
<text x="825" y="10" text-anchor="middle" fill="black">-</text>
<line x1="750" y1="20" x2="750" y2="40" style="stroke:rgb(0,0,0);stroke-width:1" />
<path d="M 781.25 25 L 787.5 35 L 793.75 25 L 787.5 30 Z" stroke="black" stroke-width="1" fill="black" />
<text x="862.5" y="10" text-anchor="middle" fill="black">trā."</text>
<circle cx="862.5" cy="30" r="2" stroke="black" stroke-width="1" fill="black" />
</g></svg>