<svg width="940" height="60"  viewBox="0 0 940 60" xmlns="http://www.w3.org/2000/svg">
<g transform="translate(20,10)">
<path d="M 0 20 A 10 10 0 0 0 0 40" stroke="black" stroke-width="1" fill="transparent" />
<line x1="0" y1="20" x2="900" y2="20" style="stroke:rgb(0,0,0);stroke-width:1" />
<line x1="0" y1="40" x2="900" y2="40" style="stroke:rgb(0,0,0);stroke-width:1" />
<text x="25" y="10" text-anchor="middle" fill="black">Hoc</text>
<line x1="48" y1="10" x2="48" y2="30" style="stroke:rgb(0,0,0);stroke-width:1" />
<line x1="52" y1="10" x2="52" y2="30" style="stroke:rgb(0,0,0);stroke-width:1" />
<path d="M 18.75 25 L 25 35 L 31.25 25 L 25 30 Z" stroke="black" stroke-width="1" fill="black" />
<text x="75" y="10" text-anchor="middle" fill="black">de</text>
<text x="100" y="10" text-anchor="middle" fill="black">-</text>
<path d="M 68.75 25 L 75 35 L 81.25 25 L 75 30 Z" stroke="black" stroke-width="1" fill="black" />
<text x="125" y="10" text-anchor="middle" fill="black">u(s</text>
<line x1="150" y1="10" x2="150" y2="20" style="stroke:rgb(0,0,0);stroke-width:1" />
<circle cx="125" cy="30" r="2" stroke="black" stroke-width="1" fill="black" />
<text x="187.5" y="10" text-anchor="middle" fill="black">in)</text>
<line x1="225" y1="10" x2="225" y2="30" style="stroke:rgb(0,0,0);stroke-width:1" />
<line x1="150" y1="20" x2="150" y2="40" style="stroke:rgb(0,0,0);stroke-width:1" />
<path d="M 181.25 25 L 187.5 35 L 193.75 25 L 187.5 30 Z" stroke="black" stroke-width="1" fill="black" />
<text x="262.5" y="10" text-anchor="middle" fill="black">nym</text>
<text x="300" y="10" text-anchor="middle" fill="black">-</text>
<path d="M 256.25 25 L 262.5 35 L 268.75 25 L 262.5 30 Z" stroke="black" stroke-width="1" fill="black" />
<text x="337.5" y="10" text-anchor="middle" fill="black">phā</text>
<line x1="375" y1="10" x2="375" y2="30" style="stroke:rgb(0,0,0);stroke-width:1" />
<line x1="300" y1="20" x2="300" y2="40" style="stroke:rgb(0,0,0);stroke-width:1" />
<circle cx="337.5" cy="30" r="2" stroke="black" stroke-width="1" fill="black" />
<text x="412.5" y="10" text-anchor="middle" fill="black">Pē</text>
<text x="450" y="10" text-anchor="middle" fill="black">-</text>
<circle cx="412.5" cy="30" r="2" stroke="black" stroke-width="1" fill="black" />
<text x="475" y="10" text-anchor="middle" fill="black">nē</text>
<text x="500" y="10" text-anchor="middle" fill="black">-</text>
<line x1="450" y1="20" x2="450" y2="40" style="stroke:rgb(0,0,0);stroke-width:1" />
<path d="M 468.75 25 L 475 35 L 481.25 25 L 475 30 Z" stroke="black" stroke-width="1" fill="black" />
<text x="525" y="10" text-anchor="middle" fill="black">i</text>
<text x="550" y="10" text-anchor="middle" fill="black">-</text>
<circle cx="525" cy="30" r="2" stroke="black" stroke-width="1" fill="black" />
<text x="575" y="10" text-anchor="middle" fill="black">de</text>
<line x1="600" y1="10" x2="600" y2="20" style="stroke:rgb(0,0,0);stroke-width:1" />
<circle cx="575" cy="30" r="2" stroke="black" stroke-width="1" fill="black" />
<text x="625" y="10" text-anchor="middle" fill="black">fīx</text>
<text x="650" y="10" text-anchor="middle" fill="black">-</text>
<line x1="600" y1="20" x2="600" y2="40" style="stroke:rgb(0,0,0);stroke-width:1" />
<path d="M 618.75 25 L 625 35 L 631.25 25 L 625 30 Z" stroke="black" stroke-width="1" fill="black" />
<text x="675" y="10" text-anchor="middle" fill="black">i(t,</text>
<line x1="698" y1="10" x2="698" y2="30" style="stroke:rgb(0,0,0);stroke-width:1" />
<line x1="702" y1="10" x2="702" y2="30" style="stroke:rgb(0,0,0);stroke-width:1" />
<circle cx="675" cy="30" r="2" stroke="black" stroke-width="1" fill="black" />
<text x="725" y="10" text-anchor="middle" fill="black">a)(t</text>
<line x1="750" y1="10" x2="750" y2="20" style="stroke:rgb(0,0,0);stroke-width:1" />
<path d="M 718.75 25 L 725 35 L 731.25 25 L 725 30 Z" stroke="black" stroke-width="1" fill="black" />
<text x="787.5" y="10" text-anchor="middle" fill="black">il)</text>
<text x="825" y="10" text-anchor="middle" fill="black">-</text>
<line x1="750" y1="20" x2="750" y2="40" style="stroke:rgb(0,0,0);stroke-width:1" />
<path d="M 781.25 25 L 787.5 35 L 793.75 25 L 787.5 30 Z" stroke="black" stroke-width="1" fill="black" />
<text x="862.5" y="10" text-anchor="middle" fill="black">lō</text>
<circle cx="862.5" cy="30" r="2" stroke="black" stroke-width="1" fill="black" />
</g></svg>