<svg width="840" height="60"  viewBox="0 0 840 60" xmlns="http://www.w3.org/2000/svg">
<g transform="translate(20,10)">
<path d="M 0 20 A 10 10 0 0 0 0 40" stroke="black" stroke-width="1" fill="transparent" />
<line x1="0" y1="20" x2="800" y2="20" style="stroke:rgb(0,0,0);stroke-width:1" />
<line x1="0" y1="40" x2="800" y2="40" style="stroke:rgb(0,0,0);stroke-width:1" />
<text x="25" y="10" text-anchor="middle" fill="black">et,</text>
<line x1="50" y1="10" x2="50" y2="30" style="stroke:rgb(0,0,0);stroke-width:1" />
<path d="M 20 25 L 25 35 L 30 25 L 25 30 Z" stroke="black" stroke-width="1" fill="black" />
<text x="75" y="10" text-anchor="middle" fill="black">fa</text>
<text x="100" y="10" text-anchor="middle" fill="black">-</text>
<path d="M 70 25 L 75 35 L 80 25 L 75 30 Z" stroke="black" stroke-width="1" fill="black" />
<text x="125" y="10" text-anchor="middle" fill="black">te</text>
<text x="150" y="10" text-anchor="middle" fill="black">-</text>
<circle cx="125" cy="30" r="2" stroke="black" stroke-width="1" fill="black" />
<text x="175" y="10" text-anchor="middle" fill="black">or,</text>
<line x1="198" y1="10" x2="198" y2="30" style="stroke:rgb(0,0,0);stroke-width:1" />
<line x1="202" y1="10" x2="202" y2="30" style="stroke:rgb(0,0,0);stroke-width:1" />
<line x1="150" y1="20" x2="150" y2="40" style="stroke:rgb(0,0,0);stroke-width:1" />
<circle cx="175" cy="30" r="2" stroke="black" stroke-width="1" fill="black" />
<text x="225" y="10" text-anchor="middle" fill="black">vo</text>
<text x="250" y="10" text-anchor="middle" fill="black">-</text>
<path d="M 220.00000000000003 25 L 225 35 L 229.99999999999997 25 L 225 30 Z" stroke="black" stroke-width="1" fill="black" />
<text x="275" y="10" text-anchor="middle" fill="black">lu</text>
<text x="300" y="10" text-anchor="middle" fill="black">-</text>
<circle cx="275" cy="30" r="2" stroke="black" stroke-width="1" fill="black" />
<text x="325" y="10" text-anchor="middle" fill="black">ī</text>
<line x1="350" y1="10" x2="350" y2="30" style="stroke:rgb(0,0,0);stroke-width:1" />
<line x1="300" y1="20" x2="300" y2="40" style="stroke:rgb(0,0,0);stroke-width:1" />
<circle cx="325" cy="30" r="2" stroke="black" stroke-width="1" fill="black" />
<text x="375" y="10" text-anchor="middle" fill="black">su(b</text>
<line x1="400" y1="10" x2="400" y2="30" style="stroke:rgb(0,0,0);stroke-width:1" />
<path d="M 370 25 L 375 35 L 380 25 L 375 30 Z" stroke="black" stroke-width="1" fill="black" />
<text x="425" y="10" text-anchor="middle" fill="black">e)</text>
<text x="450" y="10" text-anchor="middle" fill="black">-</text>
<circle cx="425" cy="30" r="2" stroke="black" stroke-width="1" fill="black" />
<text x="475" y="10" text-anchor="middle" fill="black">ō</text>
<text x="500" y="10" text-anchor="middle" fill="black">-</text>
<line x1="450" y1="20" x2="450" y2="40" style="stroke:rgb(0,0,0);stroke-width:1" />
<path d="M 470 25 L 475 35 L 480 25 L 475 30 Z" stroke="black" stroke-width="1" fill="black" />
<text x="525" y="10" text-anchor="middle" fill="black">dem</text>
<line x1="550" y1="10" x2="550" y2="20" style="stroke:rgb(0,0,0);stroke-width:1" />
<circle cx="525" cy="30" r="2" stroke="black" stroke-width="1" fill="black" />
<text x="575" y="10" text-anchor="middle" fill="black">cor</text>
<text x="600" y="10" text-anchor="middle" fill="black">-</text>
<line x1="550" y1="20" x2="550" y2="40" style="stroke:rgb(0,0,0);stroke-width:1" />
<path d="M 570 25 L 575 35 L 580 25 L 575 30 Z" stroke="black" stroke-width="1" fill="black" />
<text x="625" y="10" text-anchor="middle" fill="black">ti</text>
<text x="650" y="10" text-anchor="middle" fill="black">-</text>
<circle cx="625" cy="30" r="2" stroke="black" stroke-width="1" fill="black" />
<text x="675" y="10" text-anchor="middle" fill="black">ce</text>
<line x1="700" y1="10" x2="700" y2="20" style="stroke:rgb(0,0,0);stroke-width:1" />
<circle cx="675" cy="30" r="2" stroke="black" stroke-width="1" fill="black" />
<text x="725" y="10" text-anchor="middle" fill="black">con</text>
<text x="750" y="10" text-anchor="middle" fill="black">-</text>
<line x1="700" y1="20" x2="700" y2="40" style="stroke:rgb(0,0,0);stroke-width:1" />
<path d="M 720 25 L 725 35 L 730 25 L 725 30 Z" stroke="black" stroke-width="1" fill="black" />
<text x="775" y="10" text-anchor="middle" fill="black">dī.</text>
<circle cx="775" cy="30" r="2" stroke="black" stroke-width="1" fill="black" />
<path d="M 800 20 A 10 10 0 0 1 800 40" stroke="black" stroke-width="1" fill="transparent" />
</g></svg>