<svg width="940" height="60"  viewBox="0 0 940 60" xmlns="http://www.w3.org/2000/svg">
<g transform="translate(20,10)">
<path d="M 0 20 A 10 10 0 0 0 0 40" stroke="black" stroke-width="1" fill="transparent" />
<line x1="0" y1="20" x2="900" y2="20" style="stroke:rgb(0,0,0);stroke-width:1" />
<line x1="0" y1="40" x2="900" y2="40" style="stroke:rgb(0,0,0);stroke-width:1" />
<text x="25" y="10" text-anchor="middle" fill="black">pul</text>
<text x="50" y="10" text-anchor="middle" fill="black">-</text>
<path d="M 18.75 25 L 25 35 L 31.25 25 L 25 30 Z" stroke="black" stroke-width="1" fill="black" />
<text x="75" y="10" text-anchor="middle" fill="black">chra</text>
<line x1="100" y1="10" x2="100" y2="30" style="stroke:rgb(0,0,0);stroke-width:1" />
<circle cx="75" cy="30" r="2" stroke="black" stroke-width="1" fill="black" />
<text x="125" y="10" text-anchor="middle" fill="black">ve</text>
<text x="150" y="10" text-anchor="middle" fill="black">-</text>
<circle cx="125" cy="30" r="2" stroke="black" stroke-width="1" fill="black" />
<text x="187.5" y="10" text-anchor="middle" fill="black">rē</text>
<text x="225" y="10" text-anchor="middle" fill="black">-</text>
<line x1="150" y1="20" x2="150" y2="40" style="stroke:rgb(0,0,0);stroke-width:1" />
<circle cx="187.5" cy="30" r="2" stroke="black" stroke-width="1" fill="black" />
<text x="262.5" y="10" text-anchor="middle" fill="black">cun</text>
<text x="300" y="10" text-anchor="middle" fill="black">-</text>
<path d="M 256.25 25 L 262.5 35 L 268.75 25 L 262.5 30 Z" stroke="black" stroke-width="1" fill="black" />
<text x="337.5" y="10" text-anchor="middle" fill="black">dō</text>
<line x1="375" y1="10" x2="375" y2="30" style="stroke:rgb(0,0,0);stroke-width:1" />
<line x1="300" y1="20" x2="300" y2="40" style="stroke:rgb(0,0,0);stroke-width:1" />
<circle cx="337.5" cy="30" r="2" stroke="black" stroke-width="1" fill="black" />
<text x="412.5" y="10" text-anchor="middle" fill="black">suf</text>
<text x="450" y="10" text-anchor="middle" fill="black">-</text>
<circle cx="412.5" cy="30" r="2" stroke="black" stroke-width="1" fill="black" />
<text x="487.5" y="10" text-anchor="middle" fill="black">fun</text>
<text x="525" y="10" text-anchor="middle" fill="black">-</text>
<line x1="450" y1="20" x2="450" y2="40" style="stroke:rgb(0,0,0);stroke-width:1" />
<path d="M 481.25 25 L 487.5 35 L 493.75 25 L 487.5 30 Z" stroke="black" stroke-width="1" fill="black" />
<text x="562.5" y="10" text-anchor="middle" fill="black">di</text>
<text x="600" y="10" text-anchor="middle" fill="black">-</text>
<circle cx="562.5" cy="30" r="2" stroke="black" stroke-width="1" fill="black" />
<text x="637.5" y="10" text-anchor="middle" fill="black">tur</text>
<line x1="675" y1="10" x2="675" y2="30" style="stroke:rgb(0,0,0);stroke-width:1" />
<circle cx="637.5" cy="30" r="2" stroke="black" stroke-width="1" fill="black" />
<text x="712.5" y="10" text-anchor="middle" fill="black">ō</text>
<text x="750" y="10" text-anchor="middle" fill="black">-</text>
<path d="M 706.25 25 L 712.5 35 L 718.75 25 L 712.5 30 Z" stroke="black" stroke-width="1" fill="black" />
<text x="787.5" y="10" text-anchor="middle" fill="black">ra</text>
<line x1="825" y1="10" x2="825" y2="30" style="stroke:rgb(0,0,0);stroke-width:1" />
<circle cx="787.5" cy="30" r="2" stroke="black" stroke-width="1" fill="black" />
<text x="862.5" y="10" text-anchor="middle" fill="black">ru</text>
<text x="900" y="10" text-anchor="middle" fill="black">-</text>
<circle cx="862.5" cy="30" r="2" stroke="black" stroke-width="1" fill="black" />
<text x="937.5" y="10" text-anchor="middle" fill="black">bō</text>
<text x="975" y="10" text-anchor="middle" fill="black">-</text>
<path d="M 931.25 25 L 937.5 35 L 943.75 25 L 937.5 30 Z" stroke="black" stroke-width="1" fill="black" />
<text x="1012.5" y="10" text-anchor="middle" fill="black">re,</text>
<circle cx="1012.5" cy="30" r="2" stroke="black" stroke-width="1" fill="black" />
<path d="M 900 20 A 10 10 0 0 1 900 40" stroke="black" stroke-width="1" fill="transparent" />
</g></svg>