<svg width="940" height="60"  viewBox="0 0 940 60" xmlns="http://www.w3.org/2000/svg">
<g transform="translate(20,10)">
<path d="M 0 20 A 10 10 0 0 0 0 40" stroke="black" stroke-width="1" fill="transparent" />
<line x1="0" y1="20" x2="900" y2="20" style="stroke:rgb(0,0,0);stroke-width:1" />
<line x1="0" y1="40" x2="900" y2="40" style="stroke:rgb(0,0,0);stroke-width:1" />
<text x="25" y="10" text-anchor="middle" fill="black">"D훮</text>
<line x1="50" y1="10" x2="50" y2="30" style="stroke:rgb(0,0,0);stroke-width:1" />
<path d="M 18.75 25 L 25 35 L 31.25 25 L 25 30 Z" stroke="black" stroke-width="1" fill="black" />
<text x="75" y="10" text-anchor="middle" fill="black">mi</text>
<text x="100" y="10" text-anchor="middle" fill="black">-</text>
<path d="M 68.75 25 L 75 35 L 81.25 25 L 75 30 Z" stroke="black" stroke-width="1" fill="black" />
<text x="125" y="10" text-anchor="middle" fill="black">hi</text>
<line x1="150" y1="10" x2="150" y2="20" style="stroke:rgb(0,0,0);stroke-width:1" />
<circle cx="125" cy="30" r="2" stroke="black" stroke-width="1" fill="black" />
<text x="175" y="10" text-anchor="middle" fill="black">per</text>
<text x="200" y="10" text-anchor="middle" fill="black">-</text>
<line x1="150" y1="20" x2="150" y2="40" style="stroke:rgb(0,0,0);stroke-width:1" />
<circle cx="175" cy="30" r="2" stroke="black" stroke-width="1" fill="black" />
<text x="225" y="10" text-anchor="middle" fill="black">pe</text>
<text x="250" y="10" text-anchor="middle" fill="black">-</text>
<path d="M 218.75 25 L 225 35 L 231.25 25 L 225 30 Z" stroke="black" stroke-width="1" fill="black" />
<text x="275" y="10" text-anchor="middle" fill="black">tu</text>
<text x="300" y="10" text-anchor="middle" fill="black">-</text>
<circle cx="275" cy="30" r="2" stroke="black" stroke-width="1" fill="black" />
<text x="325" y="10" text-anchor="middle" fill="black">훮,</text>
<line x1="350" y1="10" x2="350" y2="30" style="stroke:rgb(0,0,0);stroke-width:1" />
<line x1="300" y1="20" x2="300" y2="40" style="stroke:rgb(0,0,0);stroke-width:1" />
<circle cx="325" cy="30" r="2" stroke="black" stroke-width="1" fill="black" />
<text x="375" y="10" text-anchor="middle" fill="black">ge</text>
<text x="400" y="10" text-anchor="middle" fill="black">-</text>
<path d="M 368.75 25 L 375 35 L 381.25 25 L 375 30 Z" stroke="black" stroke-width="1" fill="black" />
<text x="425" y="10" text-anchor="middle" fill="black">ni</text>
<text x="450" y="10" text-anchor="middle" fill="black">-</text>
<circle cx="425" cy="30" r="2" stroke="black" stroke-width="1" fill="black" />
<text x="487.5" y="10" text-anchor="middle" fill="black">tor</text>
<line x1="525" y1="10" x2="525" y2="30" style="stroke:rgb(0,0,0);stroke-width:1" />
<line x1="450" y1="20" x2="450" y2="40" style="stroke:rgb(0,0,0);stroke-width:1" />
<circle cx="487.5" cy="30" r="2" stroke="black" stroke-width="1" fill="black" />
<text x="562.5" y="10" text-anchor="middle" fill="black">c훮</text>
<text x="600" y="10" text-anchor="middle" fill="black">-</text>
<circle cx="562.5" cy="30" r="2" stroke="black" stroke-width="1" fill="black" />
<text x="625" y="10" text-anchor="middle" fill="black">ris</text>
<text x="650" y="10" text-anchor="middle" fill="black">-</text>
<line x1="600" y1="20" x2="600" y2="40" style="stroke:rgb(0,0,0);stroke-width:1" />
<path d="M 618.75 25 L 625 35 L 631.25 25 L 625 30 Z" stroke="black" stroke-width="1" fill="black" />
<text x="675" y="10" text-anchor="middle" fill="black">si</text>
<text x="700" y="10" text-anchor="middle" fill="black">-</text>
<circle cx="675" cy="30" r="2" stroke="black" stroke-width="1" fill="black" />
<text x="725" y="10" text-anchor="middle" fill="black">me,"</text>
<line x1="750" y1="10" x2="750" y2="20" style="stroke:rgb(0,0,0);stroke-width:1" />
<circle cx="725" cy="30" r="2" stroke="black" stroke-width="1" fill="black" />
<text x="787.5" y="10" text-anchor="middle" fill="black">d카x</text>
<text x="825" y="10" text-anchor="middle" fill="black">-</text>
<line x1="750" y1="20" x2="750" y2="40" style="stroke:rgb(0,0,0);stroke-width:1" />
<path d="M 781.25 25 L 787.5 35 L 793.75 25 L 787.5 30 Z" stroke="black" stroke-width="1" fill="black" />
<text x="862.5" y="10" text-anchor="middle" fill="black">it.</text>
<circle cx="862.5" cy="30" r="2" stroke="black" stroke-width="1" fill="black" />
<path d="M 900 20 A 10 10 0 0 1 900 40" stroke="black" stroke-width="1" fill="transparent" />
</g></svg>