<svg width="940" height="60"  viewBox="0 0 940 60" xmlns="http://www.w3.org/2000/svg">
<g transform="translate(20,10)">
<path d="M 0 20 A 10 10 0 0 0 0 40" stroke="black" stroke-width="1" fill="transparent" />
<line x1="0" y1="20" x2="900" y2="20" style="stroke:rgb(0,0,0);stroke-width:1" />
<line x1="0" y1="40" x2="900" y2="40" style="stroke:rgb(0,0,0);stroke-width:1" />
<text x="37.5" y="10" text-anchor="middle" fill="black">Il</text>
<text x="75" y="10" text-anchor="middle" fill="black">-</text>
<path d="M 31.25 25 L 37.5 35 L 43.75 25 L 37.5 30 Z" stroke="black" stroke-width="1" fill="black" />
<text x="112.5" y="10" text-anchor="middle" fill="black">le</text>
<line x1="150" y1="10" x2="150" y2="30" style="stroke:rgb(0,0,0);stroke-width:1" />
<circle cx="112.5" cy="30" r="2" stroke="black" stroke-width="1" fill="black" />
<text x="187.5" y="10" text-anchor="middle" fill="black">qui</text>
<text x="225" y="10" text-anchor="middle" fill="black">-</text>
<path d="M 181.25 25 L 187.5 35 L 193.75 25 L 187.5 30 Z" stroke="black" stroke-width="1" fill="black" />
<text x="262.5" y="10" text-anchor="middle" fill="black">de(m</text>
<line x1="300" y1="10" x2="300" y2="30" style="stroke:rgb(0,0,0);stroke-width:1" />
<circle cx="262.5" cy="30" r="2" stroke="black" stroke-width="1" fill="black" />
<text x="337.5" y="10" text-anchor="middle" fill="black">ob)</text>
<text x="375" y="10" text-anchor="middle" fill="black">-</text>
<circle cx="337.5" cy="30" r="2" stroke="black" stroke-width="1" fill="black" />
<text x="412.5" y="10" text-anchor="middle" fill="black">se</text>
<text x="450" y="10" text-anchor="middle" fill="black">-</text>
<circle cx="412.5" cy="30" r="2" stroke="black" stroke-width="1" fill="black" />
<text x="487.5" y="10" text-anchor="middle" fill="black">qui</text>
<text x="525" y="10" text-anchor="middle" fill="black">-</text>
<path d="M 481.25 25 L 487.5 35 L 493.75 25 L 487.5 30 Z" stroke="black" stroke-width="1" fill="black" />
<text x="562.5" y="10" text-anchor="middle" fill="black">tur;</text>
<line x1="598" y1="10" x2="598" y2="30" style="stroke:rgb(0,0,0);stroke-width:1" />
<line x1="602" y1="10" x2="602" y2="30" style="stroke:rgb(0,0,0);stroke-width:1" />
<circle cx="562.5" cy="30" r="2" stroke="black" stroke-width="1" fill="black" />
<text x="637.5" y="10" text-anchor="middle" fill="black">sed</text>
<line x1="675" y1="10" x2="675" y2="30" style="stroke:rgb(0,0,0);stroke-width:1" />
<path d="M 631.25 25 L 637.5 35 L 643.75 25 L 637.5 30 Z" stroke="black" stroke-width="1" fill="black" />
<text x="712.5" y="10" text-anchor="middle" fill="black">tē</text>
<line x1="750" y1="10" x2="750" y2="30" style="stroke:rgb(0,0,0);stroke-width:1" />
<path d="M 706.25 25 L 712.5 35 L 718.75 25 L 712.5 30 Z" stroke="black" stroke-width="1" fill="black" />
<text x="787.5" y="10" text-anchor="middle" fill="black">de</text>
<text x="825" y="10" text-anchor="middle" fill="black">-</text>
<path d="M 781.25 25 L 787.5 35 L 793.75 25 L 787.5 30 Z" stroke="black" stroke-width="1" fill="black" />
<text x="862.5" y="10" text-anchor="middle" fill="black">co(r</text>
<line x1="900" y1="10" x2="900" y2="30" style="stroke:rgb(0,0,0);stroke-width:1" />
<circle cx="862.5" cy="30" r="2" stroke="black" stroke-width="1" fill="black" />
<text x="937.5" y="10" text-anchor="middle" fill="black">is)</text>
<text x="975" y="10" text-anchor="middle" fill="black">-</text>
<path d="M 931.25 25 L 937.5 35 L 943.75 25 L 937.5 30 Z" stroke="black" stroke-width="1" fill="black" />
<text x="1012.5" y="10" text-anchor="middle" fill="black">te,</text>
<line x1="1050" y1="10" x2="1050" y2="30" style="stroke:rgb(0,0,0);stroke-width:1" />
<circle cx="1012.5" cy="30" r="2" stroke="black" stroke-width="1" fill="black" />
<text x="1087.5" y="10" text-anchor="middle" fill="black">quo(d</text>
<line x1="1125" y1="10" x2="1125" y2="30" style="stroke:rgb(0,0,0);stroke-width:1" />
<path d="M 1081.25 25 L 1087.5 35 L 1093.75 25 L 1087.5 30 Z" stroke="black" stroke-width="1" fill="black" />
<text x="1162.5" y="10" text-anchor="middle" fill="black">op)</text>
<text x="1200" y="10" text-anchor="middle" fill="black">-</text>
<path d="M 1156.25 25 L 1162.5 35 L 1168.75 25 L 1162.5 30 Z" stroke="black" stroke-width="1" fill="black" />
<text x="1237.5" y="10" text-anchor="middle" fill="black">tās,</text>
<circle cx="1237.5" cy="30" r="2" stroke="black" stroke-width="1" fill="black" />
<path d="M 900 20 A 10 10 0 0 1 900 40" stroke="black" stroke-width="1" fill="transparent" />
</g></svg>