<svg width="940" height="60"  viewBox="0 0 940 60" xmlns="http://www.w3.org/2000/svg">
<g transform="translate(20,10)">
<path d="M 0 20 A 10 10 0 0 0 0 40" stroke="black" stroke-width="1" fill="transparent" />
<line x1="0" y1="20" x2="900" y2="20" style="stroke:rgb(0,0,0);stroke-width:1" />
<line x1="0" y1="40" x2="900" y2="40" style="stroke:rgb(0,0,0);stroke-width:1" />
<text x="37.5" y="10" text-anchor="middle" fill="black">esse</text>
<line x1="75" y1="10" x2="75" y2="30" style="stroke:rgb(0,0,0);stroke-width:1" />
<path d="M 31.25 25 L 37.5 35 L 43.75 25 L 37.5 30 Z" stroke="black" stroke-width="1" fill="black" />
<text x="112.5" y="10" text-anchor="middle" fill="black">ve</text>
<text x="150" y="10" text-anchor="middle" fill="black">-</text>
<path d="M 106.25 25 L 112.5 35 L 118.75 25 L 112.5 30 Z" stroke="black" stroke-width="1" fill="black" />
<text x="187.5" y="10" text-anchor="middle" fill="black">tat,</text>
<line x1="225" y1="10" x2="225" y2="30" style="stroke:rgb(0,0,0);stroke-width:1" />
<circle cx="187.5" cy="30" r="2" stroke="black" stroke-width="1" fill="black" />
<text x="262.5" y="10" text-anchor="middle" fill="black">vō</text>
<text x="300" y="10" text-anchor="middle" fill="black">-</text>
<circle cx="262.5" cy="30" r="2" stroke="black" stroke-width="1" fill="black" />
<text x="337.5" y="10" text-anchor="middle" fill="black">tō</text>
<text x="375" y="10" text-anchor="middle" fill="black">-</text>
<path d="M 331.25 25 L 337.5 35 L 343.75 25 L 337.5 30 Z" stroke="black" stroke-width="1" fill="black" />
<text x="412.5" y="10" text-anchor="middle" fill="black">que</text>
<line x1="450" y1="10" x2="450" y2="30" style="stroke:rgb(0,0,0);stroke-width:1" />
<circle cx="412.5" cy="30" r="2" stroke="black" stroke-width="1" fill="black" />
<text x="487.5" y="10" text-anchor="middle" fill="black">tu</text>
<text x="525" y="10" text-anchor="middle" fill="black">-</text>
<path d="M 481.25 25 L 487.5 35 L 493.75 25 L 487.5 30 Z" stroke="black" stroke-width="1" fill="black" />
<text x="562.5" y="10" text-anchor="middle" fill="black">ō</text>
<line x1="600" y1="10" x2="600" y2="30" style="stroke:rgb(0,0,0);stroke-width:1" />
<circle cx="562.5" cy="30" r="2" stroke="black" stroke-width="1" fill="black" />
<text x="637.5" y="10" text-anchor="middle" fill="black">tu</text>
<text x="675" y="10" text-anchor="middle" fill="black">-</text>
<path d="M 631.25 25 L 637.5 35 L 643.75 25 L 637.5 30 Z" stroke="black" stroke-width="1" fill="black" />
<text x="712.5" y="10" text-anchor="middle" fill="black">a</text>
<line x1="750" y1="10" x2="750" y2="30" style="stroke:rgb(0,0,0);stroke-width:1" />
<circle cx="712.5" cy="30" r="2" stroke="black" stroke-width="1" fill="black" />
<text x="787.5" y="10" text-anchor="middle" fill="black">fōr</text>
<text x="825" y="10" text-anchor="middle" fill="black">-</text>
<path d="M 781.25 25 L 787.5 35 L 793.75 25 L 787.5 30 Z" stroke="black" stroke-width="1" fill="black" />
<text x="862.5" y="10" text-anchor="middle" fill="black">ma</text>
<line x1="900" y1="10" x2="900" y2="30" style="stroke:rgb(0,0,0);stroke-width:1" />
<circle cx="862.5" cy="30" r="2" stroke="black" stroke-width="1" fill="black" />
<text x="937.5" y="10" text-anchor="middle" fill="black">re</text>
<text x="975" y="10" text-anchor="middle" fill="black">-</text>
<circle cx="937.5" cy="30" r="2" stroke="black" stroke-width="1" fill="black" />
<text x="1012.5" y="10" text-anchor="middle" fill="black">pug</text>
<text x="1050" y="10" text-anchor="middle" fill="black">-</text>
<path d="M 1006.25 25 L 1012.5 35 L 1018.75 25 L 1012.5 30 Z" stroke="black" stroke-width="1" fill="black" />
<text x="1087.5" y="10" text-anchor="middle" fill="black">nat.</text>
<circle cx="1087.5" cy="30" r="2" stroke="black" stroke-width="1" fill="black" />
<path d="M 900 20 A 10 10 0 0 1 900 40" stroke="black" stroke-width="1" fill="transparent" />
</g></svg>