<svg width="940" height="60"  viewBox="0 0 940 60" xmlns="http://www.w3.org/2000/svg">
<g transform="translate(20,10)">
<path d="M 0 20 A 10 10 0 0 0 0 40" stroke="black" stroke-width="1" fill="transparent" />
<line x1="0" y1="20" x2="900" y2="20" style="stroke:rgb(0,0,0);stroke-width:1" />
<line x1="0" y1="40" x2="900" y2="40" style="stroke:rgb(0,0,0);stroke-width:1" />
<text x="25" y="10" text-anchor="middle" fill="black">Ut</text>
<text x="50" y="10" text-anchor="middle" fill="black">-</text>
<path d="M 18.75 25 L 25 35 L 31.25 25 L 25 30 Z" stroke="black" stroke-width="1" fill="black" />
<text x="75" y="10" text-anchor="middle" fill="black">que</text>
<line x1="100" y1="10" x2="100" y2="30" style="stroke:rgb(0,0,0);stroke-width:1" />
<circle cx="75" cy="30" r="2" stroke="black" stroke-width="1" fill="black" />
<text x="125" y="10" text-anchor="middle" fill="black">le</text>
<text x="150" y="10" text-anchor="middle" fill="black">-</text>
<path d="M 118.75 25 L 125 35 L 131.25 25 L 125 30 Z" stroke="black" stroke-width="1" fill="black" />
<text x="175" y="10" text-anchor="middle" fill="black">vēs</text>
<line x1="200" y1="10" x2="200" y2="30" style="stroke:rgb(0,0,0);stroke-width:1" />
<line x1="150" y1="20" x2="150" y2="40" style="stroke:rgb(0,0,0);stroke-width:1" />
<circle cx="175" cy="30" r="2" stroke="black" stroke-width="1" fill="black" />
<text x="225" y="10" text-anchor="middle" fill="black">sti</text>
<text x="250" y="10" text-anchor="middle" fill="black">-</text>
<path d="M 218.75 25 L 225 35 L 231.25 25 L 225 30 Z" stroke="black" stroke-width="1" fill="black" />
<text x="275" y="10" text-anchor="middle" fill="black">pu</text>
<text x="300" y="10" text-anchor="middle" fill="black">-</text>
<circle cx="275" cy="30" r="2" stroke="black" stroke-width="1" fill="black" />
<text x="337.5" y="10" text-anchor="middle" fill="black">lae</text>
<line x1="375" y1="10" x2="375" y2="30" style="stroke:rgb(0,0,0);stroke-width:1" />
<line x1="300" y1="20" x2="300" y2="40" style="stroke:rgb(0,0,0);stroke-width:1" />
<circle cx="337.5" cy="30" r="2" stroke="black" stroke-width="1" fill="black" />
<text x="412.5" y="10" text-anchor="middle" fill="black">dēmp</text>
<text x="450" y="10" text-anchor="middle" fill="black">-</text>
<path d="M 406.25 25 L 412.5 35 L 418.75 25 L 412.5 30 Z" stroke="black" stroke-width="1" fill="black" />
<text x="475" y="10" text-anchor="middle" fill="black">tīs</text>
<line x1="500" y1="10" x2="500" y2="30" style="stroke:rgb(0,0,0);stroke-width:1" />
<line x1="450" y1="20" x2="450" y2="40" style="stroke:rgb(0,0,0);stroke-width:1" />
<circle cx="475" cy="30" r="2" stroke="black" stroke-width="1" fill="black" />
<text x="525" y="10" text-anchor="middle" fill="black">a</text>
<text x="550" y="10" text-anchor="middle" fill="black">-</text>
<circle cx="525" cy="30" r="2" stroke="black" stroke-width="1" fill="black" />
<text x="575" y="10" text-anchor="middle" fill="black">do</text>
<text x="600" y="10" text-anchor="middle" fill="black">-</text>
<circle cx="575" cy="30" r="2" stroke="black" stroke-width="1" fill="black" />
<text x="637.5" y="10" text-anchor="middle" fill="black">len</text>
<text x="675" y="10" text-anchor="middle" fill="black">-</text>
<line x1="600" y1="20" x2="600" y2="40" style="stroke:rgb(0,0,0);stroke-width:1" />
<path d="M 631.25 25 L 637.5 35 L 643.75 25 L 637.5 30 Z" stroke="black" stroke-width="1" fill="black" />
<text x="712.5" y="10" text-anchor="middle" fill="black">tur</text>
<line x1="750" y1="10" x2="750" y2="20" style="stroke:rgb(0,0,0);stroke-width:1" />
<circle cx="712.5" cy="30" r="2" stroke="black" stroke-width="1" fill="black" />
<text x="787.5" y="10" text-anchor="middle" fill="black">a</text>
<text x="825" y="10" text-anchor="middle" fill="black">-</text>
<line x1="750" y1="20" x2="750" y2="40" style="stroke:rgb(0,0,0);stroke-width:1" />
<circle cx="787.5" cy="30" r="2" stroke="black" stroke-width="1" fill="black" />
<text x="862.5" y="10" text-anchor="middle" fill="black">ris</text>
<text x="900" y="10" text-anchor="middle" fill="black">-</text>
<path d="M 856.25 25 L 862.5 35 L 868.75 25 L 862.5 30 Z" stroke="black" stroke-width="1" fill="black" />
<text x="937.5" y="10" text-anchor="middle" fill="black">tīs,</text>
<line x1="900" y1="20" x2="900" y2="40" style="stroke:rgb(0,0,0);stroke-width:1" />
<circle cx="937.5" cy="30" r="2" stroke="black" stroke-width="1" fill="black" />
<path d="M 900 20 A 10 10 0 0 1 900 40" stroke="black" stroke-width="1" fill="transparent" />
</g></svg>