<svg width="940" height="60"  viewBox="0 0 940 60" xmlns="http://www.w3.org/2000/svg">
<g transform="translate(20,10)">
<line x1="0" y1="20" x2="900" y2="20" style="stroke:rgb(0,0,0);stroke-width:1" />
<line x1="0" y1="40" x2="900" y2="40" style="stroke:rgb(0,0,0);stroke-width:1" />
<text x="37.5" y="10" text-anchor="middle" fill="black">vel</text>
<line x1="75" y1="10" x2="75" y2="30" style="stroke:rgb(0,0,0);stroke-width:1" />
<path d="M 31.25 25 L 37.5 35 L 43.75 25 L 37.5 30 Z" stroke="black" stroke-width="1" fill="black" />
<text x="112.5" y="10" text-anchor="middle" fill="black">nimis</text>
<line x1="150" y1="10" x2="150" y2="20" style="stroke:rgb(0,0,0);stroke-width:1" />
<path d="M 106.25 25 L 112.5 35 L 118.75 25 L 112.5 30 Z" stroke="black" stroke-width="1" fill="black" />
<text x="175" y="10" text-anchor="middle" fill="black">admōvit</text>
<line x1="200" y1="10" x2="200" y2="30" style="stroke:rgb(0,0,0);stroke-width:1" />
<line x1="150" y1="20" x2="150" y2="40" style="stroke:rgb(0,0,0);stroke-width:1" />
<path d="M 168.75 25 L 175 35 L 181.25 25 L 175 30 Z" stroke="black" stroke-width="1" fill="black" />
<text x="225" y="10" text-anchor="middle" fill="black">ve(l</text>
<line x1="250" y1="10" x2="250" y2="30" style="stroke:rgb(0,0,0);stroke-width:1" />
<path d="M 218.75 25 L 225 35 L 231.25 25 L 225 30 Z" stroke="black" stroke-width="1" fill="black" />
<text x="275" y="10" text-anchor="middle" fill="black">i)</text>
<text x="300" y="10" text-anchor="middle" fill="black">-</text>
<path d="M 268.75 25 L 275 35 L 281.25 25 L 275 30 Z" stroke="black" stroke-width="1" fill="black" />
<text x="337.5" y="10" text-anchor="middle" fill="black">am</text>
<line x1="375" y1="10" x2="375" y2="30" style="stroke:rgb(0,0,0);stroke-width:1" />
<line x1="300" y1="20" x2="300" y2="40" style="stroke:rgb(0,0,0);stroke-width:1" />
<circle cx="337.5" cy="30" r="2" stroke="black" stroke-width="1" fill="black" />
<text x="412.5" y="10" text-anchor="middle" fill="black">sub</text>
<line x1="450" y1="10" x2="450" y2="20" style="stroke:rgb(0,0,0);stroke-width:1" />
<path d="M 406.25 25 L 412.5 35 L 418.75 25 L 412.5 30 Z" stroke="black" stroke-width="1" fill="black" />
<text x="475" y="10" text-anchor="middle" fill="black">lū</text>
<text x="500" y="10" text-anchor="middle" fill="black">-</text>
<line x1="450" y1="20" x2="450" y2="40" style="stroke:rgb(0,0,0);stroke-width:1" />
<path d="M 468.75 25 L 475 35 L 481.25 25 L 475 30 Z" stroke="black" stroke-width="1" fill="black" />
<text x="525" y="10" text-anchor="middle" fill="black">ce</text>
<line x1="550" y1="10" x2="550" y2="30" style="stroke:rgb(0,0,0);stroke-width:1" />
<circle cx="525" cy="30" r="2" stroke="black" stroke-width="1" fill="black" />
<text x="575" y="10" text-anchor="middle" fill="black">re</text>
<text x="600" y="10" text-anchor="middle" fill="black">-</text>
<circle cx="575" cy="30" r="2" stroke="black" stroke-width="1" fill="black" />
<text x="637.5" y="10" text-anchor="middle" fill="black">lī</text>
<text x="675" y="10" text-anchor="middle" fill="black">-</text>
<line x1="600" y1="20" x2="600" y2="40" style="stroke:rgb(0,0,0);stroke-width:1" />
<path d="M 631.25 25 L 637.5 35 L 643.75 25 L 637.5 30 Z" stroke="black" stroke-width="1" fill="black" />
<text x="712.5" y="10" text-anchor="middle" fill="black">quit,</text>
<circle cx="712.5" cy="30" r="2" stroke="black" stroke-width="1" fill="black" />
<path d="M 900 20 A 10 10 0 0 1 900 40" stroke="black" stroke-width="1" fill="transparent" />
</g></svg>