<svg width="940" height="60"  viewBox="0 0 940 60" xmlns="http://www.w3.org/2000/svg">
<g transform="translate(20,10)">
<path d="M 0 20 A 10 10 0 0 0 0 40" stroke="black" stroke-width="1" fill="transparent" />
<line x1="0" y1="20" x2="900" y2="20" style="stroke:rgb(0,0,0);stroke-width:1" />
<line x1="0" y1="40" x2="900" y2="40" style="stroke:rgb(0,0,0);stroke-width:1" />
<text x="25" y="10" text-anchor="middle" fill="black">sīc</text>
<line x1="50" y1="10" x2="50" y2="30" style="stroke:rgb(0,0,0);stroke-width:1" />
<path d="M 18.75 25 L 25 35 L 31.25 25 L 25 30 Z" stroke="black" stroke-width="1" fill="black" />
<text x="75" y="10" text-anchor="middle" fill="black">de</text>
<text x="100" y="10" text-anchor="middle" fill="black">-</text>
<path d="M 68.75 25 L 75 35 L 81.25 25 L 75 30 Z" stroke="black" stroke-width="1" fill="black" />
<text x="125" y="10" text-anchor="middle" fill="black">u(s</text>
<line x1="150" y1="10" x2="150" y2="20" style="stroke:rgb(0,0,0);stroke-width:1" />
<circle cx="125" cy="30" r="2" stroke="black" stroke-width="1" fill="black" />
<text x="187.5" y="10" text-anchor="middle" fill="black">in)</text>
<line x1="225" y1="10" x2="225" y2="30" style="stroke:rgb(0,0,0);stroke-width:1" />
<line x1="150" y1="20" x2="150" y2="40" style="stroke:rgb(0,0,0);stroke-width:1" />
<path d="M 181.25 25 L 187.5 35 L 193.75 25 L 187.5 30 Z" stroke="black" stroke-width="1" fill="black" />
<text x="262.5" y="10" text-anchor="middle" fill="black">flam</text>
<text x="300" y="10" text-anchor="middle" fill="black">-</text>
<path d="M 256.25 25 L 262.5 35 L 268.75 25 L 262.5 30 Z" stroke="black" stroke-width="1" fill="black" />
<text x="325" y="10" text-anchor="middle" fill="black">mās</text>
<line x1="350" y1="10" x2="350" y2="30" style="stroke:rgb(0,0,0);stroke-width:1" />
<line x1="300" y1="20" x2="300" y2="40" style="stroke:rgb(0,0,0);stroke-width:1" />
<circle cx="325" cy="30" r="2" stroke="black" stroke-width="1" fill="black" />
<text x="375" y="10" text-anchor="middle" fill="black">a(b</text>
<text x="400" y="10" text-anchor="middle" fill="black">-</text>
<circle cx="375" cy="30" r="2" stroke="black" stroke-width="1" fill="black" />
<text x="425" y="10" text-anchor="middle" fill="black">i)</text>
<text x="450" y="10" text-anchor="middle" fill="black">-</text>
<path d="M 418.75 25 L 425 35 L 431.25 25 L 425 30 Z" stroke="black" stroke-width="1" fill="black" />
<text x="487.5" y="10" text-anchor="middle" fill="black">īt,</text>
<line x1="525" y1="10" x2="525" y2="30" style="stroke:rgb(0,0,0);stroke-width:1" />
<line x1="450" y1="20" x2="450" y2="40" style="stroke:rgb(0,0,0);stroke-width:1" />
<circle cx="487.5" cy="30" r="2" stroke="black" stroke-width="1" fill="black" />
<text x="562.5" y="10" text-anchor="middle" fill="black">sīc</text>
<line x1="600" y1="10" x2="600" y2="20" style="stroke:rgb(0,0,0);stroke-width:1" />
<path d="M 556.25 25 L 562.5 35 L 568.75 25 L 562.5 30 Z" stroke="black" stroke-width="1" fill="black" />
<text x="625" y="10" text-anchor="middle" fill="black">pec</text>
<text x="650" y="10" text-anchor="middle" fill="black">-</text>
<line x1="600" y1="20" x2="600" y2="40" style="stroke:rgb(0,0,0);stroke-width:1" />
<path d="M 618.75 25 L 625 35 L 631.25 25 L 625 30 Z" stroke="black" stroke-width="1" fill="black" />
<text x="675" y="10" text-anchor="middle" fill="black">to</text>
<text x="700" y="10" text-anchor="middle" fill="black">-</text>
<circle cx="675" cy="30" r="2" stroke="black" stroke-width="1" fill="black" />
<text x="725" y="10" text-anchor="middle" fill="black">re</text>
<line x1="750" y1="10" x2="750" y2="20" style="stroke:rgb(0,0,0);stroke-width:1" />
<circle cx="725" cy="30" r="2" stroke="black" stroke-width="1" fill="black" />
<text x="787.5" y="10" text-anchor="middle" fill="black">tō</text>
<text x="825" y="10" text-anchor="middle" fill="black">-</text>
<line x1="750" y1="20" x2="750" y2="40" style="stroke:rgb(0,0,0);stroke-width:1" />
<path d="M 781.25 25 L 787.5 35 L 793.75 25 L 787.5 30 Z" stroke="black" stroke-width="1" fill="black" />
<text x="862.5" y="10" text-anchor="middle" fill="black">tō</text>
<circle cx="862.5" cy="30" r="2" stroke="black" stroke-width="1" fill="black" />
</g></svg>