<svg width="940" height="60"  viewBox="0 0 940 60" xmlns="http://www.w3.org/2000/svg">
<g transform="translate(20,10)">
<line x1="0" y1="20" x2="900" y2="20" style="stroke:rgb(0,0,0);stroke-width:1" />
<line x1="0" y1="40" x2="900" y2="40" style="stroke:rgb(0,0,0);stroke-width:1" />
<text x="25" y="10" text-anchor="middle" fill="black">dīx</text>
<text x="50" y="10" text-anchor="middle" fill="black">-</text>
<path d="M 18.75 25 L 25 35 L 31.25 25 L 25 30 Z" stroke="black" stroke-width="1" fill="black" />
<text x="75" y="10" text-anchor="middle" fill="black">e</text>
<text x="100" y="10" text-anchor="middle" fill="black">-</text>
<circle cx="75" cy="30" r="2" stroke="black" stroke-width="1" fill="black" />
<text x="125" y="10" text-anchor="middle" fill="black">ra(t;</text>
<line x1="148" y1="10" x2="148" y2="30" style="stroke:rgb(0,0,0);stroke-width:1" />
<line x1="152" y1="10" x2="152" y2="30" style="stroke:rgb(0,0,0);stroke-width:1" />
<circle cx="125" cy="30" r="2" stroke="black" stroke-width="1" fill="black" />
<text x="175" y="10" text-anchor="middle" fill="black">"Is)</text>
<text x="200" y="10" text-anchor="middle" fill="black">-</text>
<line x1="150" y1="20" x2="150" y2="40" style="stroke:rgb(0,0,0);stroke-width:1" />
<path d="M 168.75 25 L 175 35 L 181.25 25 L 175 30 Z" stroke="black" stroke-width="1" fill="black" />
<text x="225" y="10" text-anchor="middle" fill="black">ta</text>
<line x1="250" y1="10" x2="250" y2="30" style="stroke:rgb(0,0,0);stroke-width:1" />
<circle cx="225" cy="30" r="2" stroke="black" stroke-width="1" fill="black" />
<text x="275" y="10" text-anchor="middle" fill="black">de</text>
<text x="300" y="10" text-anchor="middle" fill="black">-</text>
<path d="M 268.75 25 L 275 35 L 281.25 25 L 275 30 Z" stroke="black" stroke-width="1" fill="black" />
<text x="325" y="10" text-anchor="middle" fill="black">cent</text>
<line x1="350" y1="10" x2="350" y2="30" style="stroke:rgb(0,0,0);stroke-width:1" />
<line x1="300" y1="20" x2="300" y2="40" style="stroke:rgb(0,0,0);stroke-width:1" />
<circle cx="325" cy="30" r="2" stroke="black" stroke-width="1" fill="black" />
<text x="375" y="10" text-anchor="middle" fill="black">u</text>
<text x="400" y="10" text-anchor="middle" fill="black">-</text>
<path d="M 368.75 25 L 375 35 L 381.25 25 L 375 30 Z" stroke="black" stroke-width="1" fill="black" />
<text x="425" y="10" text-anchor="middle" fill="black">me</text>
<text x="450" y="10" text-anchor="middle" fill="black">-</text>
<circle cx="425" cy="30" r="2" stroke="black" stroke-width="1" fill="black" />
<text x="487.5" y="10" text-anchor="middle" fill="black">rōs</text>
<line x1="525" y1="10" x2="525" y2="30" style="stroke:rgb(0,0,0);stroke-width:1" />
<line x1="450" y1="20" x2="450" y2="40" style="stroke:rgb(0,0,0);stroke-width:1" />
<circle cx="487.5" cy="30" r="2" stroke="black" stroke-width="1" fill="black" />
<text x="562.5" y="10" text-anchor="middle" fill="black">ges</text>
<text x="600" y="10" text-anchor="middle" fill="black">-</text>
<circle cx="562.5" cy="30" r="2" stroke="black" stroke-width="1" fill="black" />
<text x="625" y="10" text-anchor="middle" fill="black">tā</text>
<text x="650" y="10" text-anchor="middle" fill="black">-</text>
<line x1="600" y1="20" x2="600" y2="40" style="stroke:rgb(0,0,0);stroke-width:1" />
<path d="M 618.75 25 L 625 35 L 631.25 25 L 625 30 Z" stroke="black" stroke-width="1" fill="black" />
<text x="675" y="10" text-anchor="middle" fill="black">mi</text>
<text x="700" y="10" text-anchor="middle" fill="black">-</text>
<circle cx="675" cy="30" r="2" stroke="black" stroke-width="1" fill="black" />
<text x="725" y="10" text-anchor="middle" fill="black">na</text>
<line x1="750" y1="10" x2="750" y2="20" style="stroke:rgb(0,0,0);stroke-width:1" />
<circle cx="725" cy="30" r="2" stroke="black" stroke-width="1" fill="black" />
<text x="787.5" y="10" text-anchor="middle" fill="black">nos</text>
<text x="825" y="10" text-anchor="middle" fill="black">-</text>
<line x1="750" y1="20" x2="750" y2="40" style="stroke:rgb(0,0,0);stroke-width:1" />
<path d="M 781.25 25 L 787.5 35 L 793.75 25 L 787.5 30 Z" stroke="black" stroke-width="1" fill="black" />
<text x="862.5" y="10" text-anchor="middle" fill="black">trōs,</text>
<circle cx="862.5" cy="30" r="2" stroke="black" stroke-width="1" fill="black" />
<path d="M 900 20 A 10 10 0 0 1 900 40" stroke="black" stroke-width="1" fill="transparent" />
</g></svg>