<svg width="940" height="60"  viewBox="0 0 940 60" xmlns="http://www.w3.org/2000/svg">
<g transform="translate(20,10)">
<path d="M 0 20 A 10 10 0 0 0 0 40" stroke="black" stroke-width="1" fill="transparent" />
<line x1="0" y1="20" x2="900" y2="20" style="stroke:rgb(0,0,0);stroke-width:1" />
<line x1="0" y1="40" x2="900" y2="40" style="stroke:rgb(0,0,0);stroke-width:1" />
<text x="37.5" y="10" text-anchor="middle" fill="black">hos</text>
<text x="75" y="10" text-anchor="middle" fill="black">-</text>
<path d="M 31.25 25 L 37.5 35 L 43.75 25 L 37.5 30 Z" stroke="black" stroke-width="1" fill="black" />
<text x="112.5" y="10" text-anchor="middle" fill="black">tēs</text>
<line x1="150" y1="10" x2="150" y2="20" style="stroke:rgb(0,0,0);stroke-width:1" />
<circle cx="112.5" cy="30" r="2" stroke="black" stroke-width="1" fill="black" />
<text x="175" y="10" text-anchor="middle" fill="black">quae</text>
<text x="200" y="10" text-anchor="middle" fill="black">-</text>
<line x1="150" y1="20" x2="150" y2="40" style="stroke:rgb(0,0,0);stroke-width:1" />
<path d="M 168.75 25 L 175 35 L 181.25 25 L 175 30 Z" stroke="black" stroke-width="1" fill="black" />
<text x="225" y="10" text-anchor="middle" fill="black">que</text>
<line x1="250" y1="10" x2="250" y2="30" style="stroke:rgb(0,0,0);stroke-width:1" />
<circle cx="225" cy="30" r="2" stroke="black" stroke-width="1" fill="black" />
<text x="275" y="10" text-anchor="middle" fill="black">su</text>
<text x="300" y="10" text-anchor="middle" fill="black">-</text>
<path d="M 268.75 25 L 275 35 L 281.25 25 L 275 30 Z" stroke="black" stroke-width="1" fill="black" />
<text x="325" y="10" text-anchor="middle" fill="black">ōs;</text>
<line x1="348" y1="10" x2="348" y2="30" style="stroke:rgb(0,0,0);stroke-width:1" />
<line x1="352" y1="10" x2="352" y2="30" style="stroke:rgb(0,0,0);stroke-width:1" />
<line x1="300" y1="20" x2="300" y2="40" style="stroke:rgb(0,0,0);stroke-width:1" />
<circle cx="325" cy="30" r="2" stroke="black" stroke-width="1" fill="black" />
<text x="375" y="10" text-anchor="middle" fill="black">a</text>
<text x="400" y="10" text-anchor="middle" fill="black">-</text>
<path d="M 368.75 25 L 375 35 L 381.25 25 L 375 30 Z" stroke="black" stroke-width="1" fill="black" />
<text x="425" y="10" text-anchor="middle" fill="black">mo(r</text>
<line x1="450" y1="10" x2="450" y2="20" style="stroke:rgb(0,0,0);stroke-width:1" />
<circle cx="425" cy="30" r="2" stroke="black" stroke-width="1" fill="black" />
<text x="475" y="10" text-anchor="middle" fill="black">est)</text>
<line x1="500" y1="10" x2="500" y2="30" style="stroke:rgb(0,0,0);stroke-width:1" />
<line x1="450" y1="20" x2="450" y2="40" style="stroke:rgb(0,0,0);stroke-width:1" />
<path d="M 468.75 25 L 475 35 L 481.25 25 L 475 30 Z" stroke="black" stroke-width="1" fill="black" />
<text x="525" y="10" text-anchor="middle" fill="black">mi</text>
<text x="550" y="10" text-anchor="middle" fill="black">-</text>
<path d="M 518.75 25 L 525 35 L 531.25 25 L 525 30 Z" stroke="black" stroke-width="1" fill="black" />
<text x="575" y="10" text-anchor="middle" fill="black">hi</text>
<line x1="600" y1="10" x2="600" y2="20" style="stroke:rgb(0,0,0);stroke-width:1" />
<circle cx="575" cy="30" r="2" stroke="black" stroke-width="1" fill="black" />
<text x="625" y="10" text-anchor="middle" fill="black">cau</text>
<text x="650" y="10" text-anchor="middle" fill="black">-</text>
<line x1="600" y1="20" x2="600" y2="40" style="stroke:rgb(0,0,0);stroke-width:1" />
<path d="M 618.75 25 L 625 35 L 631.25 25 L 625 30 Z" stroke="black" stroke-width="1" fill="black" />
<text x="675" y="10" text-anchor="middle" fill="black">sa</text>
<line x1="700" y1="10" x2="700" y2="30" style="stroke:rgb(0,0,0);stroke-width:1" />
<circle cx="675" cy="30" r="2" stroke="black" stroke-width="1" fill="black" />
<text x="725" y="10" text-anchor="middle" fill="black">se</text>
<text x="750" y="10" text-anchor="middle" fill="black">-</text>
<circle cx="725" cy="30" r="2" stroke="black" stroke-width="1" fill="black" />
<text x="787.5" y="10" text-anchor="middle" fill="black">quen</text>
<text x="825" y="10" text-anchor="middle" fill="black">-</text>
<line x1="750" y1="20" x2="750" y2="40" style="stroke:rgb(0,0,0);stroke-width:1" />
<path d="M 781.25 25 L 787.5 35 L 793.75 25 L 787.5 30 Z" stroke="black" stroke-width="1" fill="black" />
<text x="862.5" y="10" text-anchor="middle" fill="black">dī.</text>
<circle cx="862.5" cy="30" r="2" stroke="black" stroke-width="1" fill="black" />
<path d="M 900 20 A 10 10 0 0 1 900 40" stroke="black" stroke-width="1" fill="transparent" />
</g></svg>