<svg width="940" height="60"  viewBox="0 0 940 60" xmlns="http://www.w3.org/2000/svg">
<g transform="translate(20,10)">
<line x1="0" y1="20" x2="900" y2="20" style="stroke:rgb(0,0,0);stroke-width:1" />
<line x1="0" y1="40" x2="900" y2="40" style="stroke:rgb(0,0,0);stroke-width:1" />
<text x="25" y="10" text-anchor="middle" fill="black">quem</text>
<line x1="50" y1="10" x2="50" y2="30" style="stroke:rgb(0,0,0);stroke-width:1" />
<path d="M 18.75 25 L 25 35 L 31.25 25 L 25 30 Z" stroke="black" stroke-width="1" fill="black" />
<text x="75" y="10" text-anchor="middle" fill="black">fu</text>
<text x="100" y="10" text-anchor="middle" fill="black">-</text>
<path d="M 68.75 25 L 75 35 L 81.25 25 L 75 30 Z" stroke="black" stroke-width="1" fill="black" />
<text x="125" y="10" text-anchor="middle" fill="black">gi</text>
<text x="150" y="10" text-anchor="middle" fill="black">-</text>
<circle cx="125" cy="30" r="2" stroke="black" stroke-width="1" fill="black" />
<text x="175" y="10" text-anchor="middle" fill="black">ās,</text>
<line x1="198" y1="10" x2="198" y2="30" style="stroke:rgb(0,0,0);stroke-width:1" />
<line x1="202" y1="10" x2="202" y2="30" style="stroke:rgb(0,0,0);stroke-width:1" />
<line x1="150" y1="20" x2="150" y2="40" style="stroke:rgb(0,0,0);stroke-width:1" />
<circle cx="175" cy="30" r="2" stroke="black" stroke-width="1" fill="black" />
<text x="225" y="10" text-anchor="middle" fill="black">i</text>
<text x="250" y="10" text-anchor="middle" fill="black">-</text>
<circle cx="225" cy="30" r="2" stroke="black" stroke-width="1" fill="black" />
<text x="275" y="10" text-anchor="middle" fill="black">de</text>
<text x="300" y="10" text-anchor="middle" fill="black">-</text>
<circle cx="275" cy="30" r="2" stroke="black" stroke-width="1" fill="black" />
<text x="325" y="10" text-anchor="middle" fill="black">ō</text>
<text x="350" y="10" text-anchor="middle" fill="black">-</text>
<line x1="300" y1="20" x2="300" y2="40" style="stroke:rgb(0,0,0);stroke-width:1" />
<path d="M 318.75 25 L 325 35 L 331.25 25 L 325 30 Z" stroke="black" stroke-width="1" fill="black" />
<text x="375" y="10" text-anchor="middle" fill="black">que</text>
<line x1="400" y1="10" x2="400" y2="30" style="stroke:rgb(0,0,0);stroke-width:1" />
<circle cx="375" cy="30" r="2" stroke="black" stroke-width="1" fill="black" />
<text x="425" y="10" text-anchor="middle" fill="black">fu</text>
<text x="450" y="10" text-anchor="middle" fill="black">-</text>
<path d="M 418.75 25 L 425 35 L 431.25 25 L 425 30 Z" stroke="black" stroke-width="1" fill="black" />
<text x="475" y="10" text-anchor="middle" fill="black">gis.</text>
<line x1="498" y1="10" x2="498" y2="30" style="stroke:rgb(0,0,0);stroke-width:1" />
<line x1="502" y1="10" x2="502" y2="30" style="stroke:rgb(0,0,0);stroke-width:1" />
<line x1="450" y1="20" x2="450" y2="40" style="stroke:rgb(0,0,0);stroke-width:1" />
<circle cx="475" cy="30" r="2" stroke="black" stroke-width="1" fill="black" />
<text x="525" y="10" text-anchor="middle" fill="black">Mi</text>
<text x="550" y="10" text-anchor="middle" fill="black">-</text>
<path d="M 518.75 25 L 525 35 L 531.25 25 L 525 30 Z" stroke="black" stroke-width="1" fill="black" />
<text x="575" y="10" text-anchor="middle" fill="black">hi</text>
<line x1="600" y1="10" x2="600" y2="20" style="stroke:rgb(0,0,0);stroke-width:1" />
<circle cx="575" cy="30" r="2" stroke="black" stroke-width="1" fill="black" />
<text x="625" y="10" text-anchor="middle" fill="black">Del</text>
<text x="650" y="10" text-anchor="middle" fill="black">-</text>
<line x1="600" y1="20" x2="600" y2="40" style="stroke:rgb(0,0,0);stroke-width:1" />
<path d="M 618.75 25 L 625 35 L 631.25 25 L 625 30 Z" stroke="black" stroke-width="1" fill="black" />
<text x="675" y="10" text-anchor="middle" fill="black">phi</text>
<text x="700" y="10" text-anchor="middle" fill="black">-</text>
<circle cx="675" cy="30" r="2" stroke="black" stroke-width="1" fill="black" />
<text x="725" y="10" text-anchor="middle" fill="black">ca</text>
<line x1="750" y1="10" x2="750" y2="20" style="stroke:rgb(0,0,0);stroke-width:1" />
<circle cx="725" cy="30" r="2" stroke="black" stroke-width="1" fill="black" />
<text x="787.5" y="10" text-anchor="middle" fill="black">tel</text>
<text x="825" y="10" text-anchor="middle" fill="black">-</text>
<line x1="750" y1="20" x2="750" y2="40" style="stroke:rgb(0,0,0);stroke-width:1" />
<path d="M 781.25 25 L 787.5 35 L 793.75 25 L 787.5 30 Z" stroke="black" stroke-width="1" fill="black" />
<text x="862.5" y="10" text-anchor="middle" fill="black">lūs</text>
<circle cx="862.5" cy="30" r="2" stroke="black" stroke-width="1" fill="black" />
</g></svg>